<svg width="30" height="30" viewBox="0 0 30 30" fill="none" xmlns="http://www.w3.org/2000/svg">
<path d="M27.4902 7.78809V22.2109L15 29.4229L2.50977 22.2109V7.78809L15 0.576172L27.4902 7.78809Z" stroke="#040404"/>
<path d="M14.6464 20.3536C14.8417 20.5488 15.1583 20.5488 15.3536 20.3536L18.5355 17.1716C18.7308 16.9763 18.7308 16.6597 18.5355 16.4645C18.3403 16.2692 18.0237 16.2692 17.8284 16.4645L15 19.2929L12.1716 16.4645C11.9763 16.2692 11.6597 16.2692 11.4645 16.4645C11.2692 16.6597 11.2692 16.9763 11.4645 17.1716L14.6464 20.3536ZM14.5 10V20H15.5V10H14.5Z" fill="#040404"/>
</svg>
